# OBJ written from C:\Users\Trian\Documents\RTS\Mecha.obj
# Units	meters

o Mecha
v -0.5 1.19 0.34
v -0.5 2 0.34
v -0.5 2 -0.23
v -0.5 1.19 -0.23
v 0.5 1.19 0.34
v 0.5 2 0.34
v 0.5 2 -0.23
v 0.5 1.19 -0.23
v 0.25 0 0.225
v 0.5 0 0.225
v 0.5 0.56 -0.175
v 0.25 0.56 -0.175
v 0.25 0 -0.025
v 0.5 0 -0.025
v 0.5 0.56 -0.425
v 0.25 0.56 -0.425
v -0.5 0 0.225
v -0.25 0 0.225
v -0.25 0.56 -0.175
v -0.5 0.56 -0.175
v -0.5 0 -0.025
v -0.25 0 -0.025
v -0.25 0.56 -0.425
v -0.5 0.56 -0.425
v -0.318193 1.995 0.312622
v 0.368193 1.995 0.312622
v 0.368193 2.545 0.0876222
v -0.318193 2.545 0.0876222
v -0.318193 1.995 -0.192622
v 0.368193 1.995 -0.192622
v 0.368193 2.695 -0.192622
v -0.318193 2.695 -0.192622
v 0.377973 1.99673 0.125
v 0.487566 1.77203 0.125
v 0.791241 1.92327 0.125
v 0.683121 2.14865 0.125
v 0.377973 1.99673 -0.125
v 0.487566 1.77203 -0.125
v 0.791241 1.92327 -0.125
v 0.683121 2.14865 -0.125
v 0.5 1.19 -0.089
v 0.25 1.19 -0.089
v 0.25 1.19 0.161
v 0.5 1.19 0.161
v -0.25 1.19 -0.089
v -0.5 1.19 -0.089
v -0.5 1.19 0.161
v -0.25 1.19 0.161
v 1.07624 1.92827 -0.125
v 0.968121 2.15365 -0.125
v 0.968121 2.15365 0.125
v 1.07624 1.92827 0.125
v 0.968121 2.15865 1.045
v 0.683121 2.15365 1.045
v 0.791241 1.92827 1.045
v 1.07624 1.93327 1.045
v -0.377973 1.99673 0.125
v -0.487566 1.77203 0.125
v -0.791241 1.92327 0.125
v -0.683121 2.14865 0.125
v -0.377973 1.99673 -0.125
v -0.487566 1.77203 -0.125
v -0.791241 1.92327 -0.125
v -0.683121 2.14865 -0.125
v -1.07624 1.92827 -0.125
v -0.968121 2.15365 -0.125
v -0.968121 2.15365 0.125
v -1.07624 1.92827 0.125
v -0.968121 2.15865 1.045
v -0.683121 2.15365 1.045
v -0.791241 1.92827 1.045
v -1.07624 1.93327 1.045
vn -1 0 -6.12323e-17
vn -6.12323e-17 0 1
vn 0 1 0
vn 6.12323e-17 0 -1
vn 0 -1 0
vn 1 0 6.12323e-17
vn -4.98268e-17 0.581238 0.813733
vn 4.98268e-17 -0.581238 -0.813733
vn -5.66734e-17 0.378633 0.925547
vn -4.54719e-17 0.669722 0.742612
vn -2.88956e-17 0.881651 0.471902
vn -0.898794 -0.438371 -5.50353e-17
vn 0.445791 -0.895137 2.72968e-17
vn 0.237508 -0.971386 1.45432e-17
vn 0.163869 -0.98648 0.00185172
vn -0.237449 0.9714 -1.45395e-17
vn -0.445681 0.895192 -2.72901e-17
vn -0.16383 0.986487 -0.00185175
vn 5.40285e-17 0.470588 -0.882353
vn -5.40285e-17 -0.470588 0.882353
vn 0.0175411 -0.999842 0.00271694
vn 0.0175411 -0.999846 1.07409e-18
vn -0.0175416 0.999846 -1.07411e-18
vn -0.0175415 0.999842 -0.00271701
vn 0.901626 0.432517 5.52087e-17
vn 0.901625 0.432516 -0.00117531
vn 0.901624 0.432515 -0.00235062
vn -0.0175413 0.999831 -0.00543399
vn -0.901623 -0.432516 0.00235068
vn 0.0175409 -0.999831 0.00543386
vn 0.898794 -0.438371 5.50353e-17
vn -0.445791 -0.895137 -2.72968e-17
vn -0.163869 -0.98648 0.00185172
vn -0.237508 -0.971386 -1.45432e-17
vn 0.237449 0.9714 1.45395e-17
vn 0.16383 0.986487 -0.00185175
vn 0.445681 0.895192 2.72901e-17
vn -0.0175411 -0.999842 0.00271694
vn -0.0175411 -0.999846 -1.07409e-18
vn 0.0175416 0.999846 1.07411e-18
vn 0.0175415 0.999842 -0.00271701
vn -0.901626 0.432517 -5.52087e-17
vn -0.901625 0.432516 -0.00117531
vn -0.901624 0.432515 -0.00235062
vn 0.0175413 0.999831 -0.00543399
vn 0.901623 -0.432516 0.00235068
vn -0.0175409 -0.999831 0.00543386
vt 0.25 0
vt 0.5 0
vt 0.5 0.333333
vt 0.25 0.333333
vt 1 0.666667
vt 0.75 0.666667
vt 0.75 0.333333
vt 1 0.333333
vt 0.5 0.666667
vt 0.25 0.666667
vt 0 0.666667
vt 0 0.333333
vt 0.25 1
vt 0.5 1
mtllib Mecha.mtl
usemtl Default
g Default
f 1/1/1 2/2/1 3/3/1 4/4/1
f 5/5/2 6/6/2 2/7/2 1/8/2
f 6/6/3 7/9/3 3/3/3 2/7/3
f 7/9/4 8/10/4 4/4/4 3/3/4
f 8/10/5 5/11/5 1/12/5 4/4/5
f 5/13/6 8/10/6 7/9/6 6/14/6
f 9/1/7 10/2/7 11/3/7 12/4/7
f 13/5/5 14/6/5 10/7/5 9/8/5
f 14/6/6 15/9/6 11/3/6 10/7/6
f 16/10/1 13/11/1 9/12/1 12/4/1
f 13/13/8 16/10/8 15/9/8 14/14/8
f 17/1/7 18/2/7 19/3/7 20/4/7
f 21/5/5 22/6/5 18/7/5 17/8/5
f 22/6/6 23/9/6 19/3/6 18/7/6
f 24/10/1 21/11/1 17/12/1 20/4/1
f 21/13/8 24/10/8 23/9/8 22/14/8
f 25/1/9 26/2/9 27/3/10 28/4/10
f 29/5/5 30/6/5 26/7/5 25/8/5
f 30/6/6 31/9/6 27/3/6 26/7/6
f 31/9/11 32/10/11 28/4/10 27/3/10
f 32/10/1 29/11/1 25/12/1 28/4/1
f 29/13/4 32/10/4 31/9/4 30/14/4
f 33/1/2 34/2/2 35/3/2 36/4/2
f 37/5/12 38/6/12 34/7/12 33/8/12
f 38/6/13 39/9/14 35/3/15 34/7/13
f 40/10/16 37/11/17 33/12/17 36/4/18
f 37/13/4 40/10/4 39/9/4 38/14/4
f 44/8/6 11/12/6 15/11/6 41/5/6
f 41/5/19 15/11/19 16/11/19 42/5/19
f 42/5/1 16/11/1 12/12/1 43/8/1
f 43/8/20 12/12/20 11/12/20 44/8/20
f 48/8/6 19/12/6 23/11/6 45/5/6
f 45/5/19 23/11/19 24/11/19 46/5/19
f 46/5/1 24/11/1 20/12/1 47/8/1
f 47/8/20 20/12/20 19/12/20 48/8/20
f 41/9/3 42/10/3 43/4/3 44/3/3
f 45/9/3 46/10/3 47/4/3 48/3/3
f 52/8/21 35/12/15 39/11/14 49/5/22
f 49/5/4 39/11/4 40/11/4 50/5/4
f 50/5/23 40/11/16 36/12/18 51/8/24
f 49/9/25 50/10/25 51/4/26 52/3/26
f 56/8/27 52/12/26 51/12/26 53/8/27
f 53/8/28 51/12/24 36/12/18 54/8/28
f 54/8/29 36/12/29 35/12/29 55/8/29
f 55/8/30 35/12/15 52/12/21 56/8/30
f 53/8/2 54/12/2 55/12/2 56/8/2
f 57/1/2 60/4/2 59/3/2 58/2/2
f 61/5/31 57/8/31 58/7/31 62/6/31
f 62/6/32 58/7/32 59/3/33 63/9/34
f 64/10/35 60/4/36 57/12/37 61/11/37
f 61/13/4 62/14/4 63/9/4 64/10/4
f 68/8/38 65/5/39 63/11/34 59/12/33
f 65/5/4 66/5/4 64/11/4 63/11/4
f 66/5/40 67/8/41 60/12/36 64/11/35
f 65/9/42 68/3/43 67/4/43 66/10/42
f 72/8/44 69/8/44 67/12/43 68/12/43
f 69/8/45 70/8/45 60/12/36 67/12/41
f 70/8/46 71/8/46 59/12/46 60/12/46
f 71/8/47 72/8/47 68/12/38 59/12/33
f 69/8/2 72/8/2 71/12/2 70/12/2
