# OBJ written from C:\Users\Trian\Documents\RTS\Sniper.obj
# Units	meters

o Sniper
v -0.5 0.5 0.16
v -0.5 2 0.34
v -0.5 2 -0.23
v -0.5 0.5 -0.23
v 0.5 0.5 0.16
v 0.5 2 0.34
v 0.5 2 -0.23
v 0.5 0.5 -0.23
v 0.25 0 0.125
v 0.5 0 0.125
v 0.5 0.5 0.125
v 0.25 0.5 0.125
v 0.25 0 -0.125
v 0.5 0 -0.125
v 0.5 0.5 -0.125
v 0.25 0.5 -0.125
v -0.5 0 0.125
v -0.25 0 0.125
v -0.25 0.5 0.125
v -0.5 0.5 0.125
v -0.5 0 -0.125
v -0.25 0 -0.125
v -0.25 0.5 -0.125
v -0.5 0.5 -0.125
v -0.1 2.01 0.125
v 0.15 2.01 0.125
v 0.15 2.23 0.125
v -0.1 2.23 0.125
v -0.1 2.01 -0.125
v 0.15 2.01 -0.125
v 0.15 2.23 -0.125
v -0.1 2.23 -0.125
v -0.258193 2.22 0.252622
v 0.288193 2.22 0.252622
v 0.288193 2.92 0.252622
v -0.258193 2.92 0.252622
v -0.258193 2.22 -0.252622
v 0.288193 2.22 -0.252622
v 0.288193 2.92 -0.252622
v -0.258193 2.92 -0.252622
v -1.30714 1.96062 0.125
v -1.30278 1.71066 0.125
v -0.472857 1.71938 0.125
v -0.47722 1.96934 0.125
v -1.30714 1.96062 -0.125
v -1.30278 1.71066 -0.125
v -0.472857 1.71938 -0.125
v -0.47722 1.96934 -0.125
v 0.492856 1.96062 0.125
v 0.49722 1.71066 0.125
v 1.32714 1.71938 0.125
v 1.32278 1.96934 0.125
v 0.492856 1.96062 -0.125
v 0.49722 1.71066 -0.125
v 1.32714 1.71938 -0.125
v 1.32278 1.96934 -0.125
vn -1 0 -6.12323e-17
vn -6.07962e-17 -0.119145 0.992877
vn 0 1 0
vn 6.12323e-17 0 -1
vn 0 -1 0
vn 1 0 6.12323e-17
vn -6.12323e-17 0 1
vn -0.999848 -0.0174527 -6.1223e-17
vn 0.0105139 -0.999945 6.43792e-19
vn 0.999848 0.0174525 6.1223e-17
vn -0.0105139 0.999945 -6.43792e-19
vn 0.0105139 -0.999945 6.43792e-19
vn 0.999848 0.0174522 6.1223e-17
vt 0.25 0
vt 0.5 0
vt 0.5 0.333333
vt 0.25 0.333333
vt 1 0.666667
vt 0.75 0.666667
vt 0.75 0.333333
vt 1 0.333333
vt 0.5 0.666667
vt 0.25 0.666667
vt 0 0.666667
vt 0 0.333333
vt 0.25 1
vt 0.5 1
mtllib Sniper.mtl
usemtl Default
g Default
f 1/1/1 2/2/1 3/3/1 4/4/1
f 5/5/2 6/6/2 2/7/2 1/8/2
f 6/6/3 7/9/3 3/3/3 2/7/3
f 7/9/4 8/10/4 4/4/4 3/3/4
f 8/10/5 5/11/5 1/12/5 4/4/5
f 5/13/6 8/10/6 7/9/6 6/14/6
f 9/1/7 10/2/7 11/3/7 12/4/7
f 13/5/5 14/6/5 10/7/5 9/8/5
f 14/6/6 15/9/6 11/3/6 10/7/6
f 15/9/3 16/10/3 12/4/3 11/3/3
f 16/10/1 13/11/1 9/12/1 12/4/1
f 13/13/4 16/10/4 15/9/4 14/14/4
f 17/1/7 18/2/7 19/3/7 20/4/7
f 21/5/5 22/6/5 18/7/5 17/8/5
f 22/6/6 23/9/6 19/3/6 18/7/6
f 23/9/3 24/10/3 20/4/3 19/3/3
f 24/10/1 21/11/1 17/12/1 20/4/1
f 21/13/4 24/10/4 23/9/4 22/14/4
f 25/1/7 26/2/7 27/3/7 28/4/7
f 29/5/5 30/6/5 26/7/5 25/8/5
f 30/6/6 31/9/6 27/3/6 26/7/6
f 31/9/3 32/10/3 28/4/3 27/3/3
f 32/10/1 29/11/1 25/12/1 28/4/1
f 29/13/4 32/10/4 31/9/4 30/14/4
f 33/1/7 34/2/7 35/3/7 36/4/7
f 37/5/5 38/6/5 34/7/5 33/8/5
f 38/6/6 39/9/6 35/3/6 34/7/6
f 39/9/3 40/10/3 36/4/3 35/3/3
f 40/10/1 37/11/1 33/12/1 36/4/1
f 37/13/4 40/10/4 39/9/4 38/14/4
f 41/1/7 42/2/7 43/3/7 44/4/7
f 45/5/8 46/6/8 42/7/8 41/8/8
f 46/6/9 47/9/9 43/3/9 42/7/9
f 47/9/10 48/10/10 44/4/10 43/3/10
f 48/10/11 45/11/11 41/12/11 44/4/11
f 45/13/4 48/10/4 47/9/4 46/14/4
f 49/1/7 50/2/7 51/3/7 52/4/7
f 53/5/8 54/6/8 50/7/8 49/8/8
f 54/6/12 55/9/12 51/3/12 50/7/12
f 55/9/13 56/10/13 52/4/13 51/3/13
f 56/10/11 53/11/11 49/12/11 52/4/11
f 53/13/4 56/10/4 55/9/4 54/14/4
