# OBJ written from C:\Users\Trian\Documents\RTS\Trooper.obj
# Units	meters

o Trooper
v -0.553689 0.5 0.306311
v -0.553689 2 0.306311
v -0.553689 2 -0.263689
v -0.553689 0.5 -0.263689
v 0.446311 0.5 0.306311
v 0.446311 2 0.306311
v 0.446311 2 -0.263689
v 0.446311 0.5 -0.263689
v 0.196311 0 0.091311
v 0.446311 0 0.091311
v 0.446311 0.5 0.091311
v 0.196311 0.5 0.091311
v 0.196311 0 -0.158689
v 0.446311 0 -0.158689
v 0.446311 0.5 -0.158689
v 0.196311 0.5 -0.158689
v -0.553689 0 0.091311
v -0.303689 0 0.091311
v -0.303689 0.5 0.091311
v -0.553689 0.5 0.091311
v -0.553689 0 -0.158689
v -0.303689 0 -0.158689
v -0.303689 0.5 -0.158689
v -0.553689 0.5 -0.158689
v -0.153689 2.01 0.091311
v 0.0963112 2.01 0.091311
v 0.0963112 2.23 0.091311
v -0.153689 2.23 0.091311
v -0.153689 2.01 -0.158689
v 0.0963112 2.01 -0.158689
v 0.0963112 2.23 -0.158689
v -0.153689 2.23 -0.158689
v -0.371882 2.22 0.218933
v 0.314504 2.22 0.218933
v 0.314504 2.92 0.218933
v -0.371882 2.92 0.218933
v -0.371882 2.22 -0.286311
v 0.314504 2.22 -0.286311
v 0.314504 2.92 -0.286311
v -0.371882 2.92 -0.286311
v -1.36083 1.96062 0.091311
v -1.35647 1.71066 0.091311
v -0.526545 1.71938 0.091311
v -0.530908 1.96934 0.091311
v -1.36083 1.96062 -0.158689
v -1.35647 1.71066 -0.158689
v -0.526545 1.71938 -0.158689
v -0.530908 1.96934 -0.158689
v 0.439168 1.96062 0.091311
v 0.443531 1.71066 0.091311
v 1.27345 1.71938 0.091311
v 1.26909 1.96934 0.091311
v 0.439168 1.96062 -0.158689
v 0.443531 1.71066 -0.158689
v 1.27345 1.71938 -0.158689
v 1.26909 1.96934 -0.158689
vn -1 0 0
vn 0 0 1
vn 0 1 0
vn 2.98023e-08 0 -1
vn 0 -1 0
vn 1 0 0
vn 0 0 -1
vn -0.999848 -0.0174527 0
vn 0.0105139 -0.999945 0
vn 0.999848 0.0174522 0
vn -0.0105139 0.999945 0
vn 0.0105139 -0.999945 0
vn -0.0105139 0.999945 0
vt 0.25 0
vt 0.5 0
vt 0.5 0.333333
vt 0.25 0.333333
vt 1 0.666667
vt 0.75 0.666667
vt 0.75 0.333333
vt 1 0.333333
vt 0.5 0.666667
vt 0.25 0.666667
vt 0 0.666667
vt 0 0.333333
vt 0.25 1
vt 0.5 1
mtllib Trooper.mtl
usemtl Default
g Default
f 1/1/1 2/2/1 3/3/1 4/4/1
f 5/5/2 6/6/2 2/7/2 1/8/2
f 6/6/3 7/9/3 3/3/3 2/7/3
f 7/9/4 8/10/4 4/4/4 3/3/4
f 8/10/5 5/11/5 1/12/5 4/4/5
f 5/13/6 8/10/6 7/9/6 6/14/6
f 9/1/2 10/2/2 11/3/2 12/4/2
f 13/5/5 14/6/5 10/7/5 9/8/5
f 14/6/6 15/9/6 11/3/6 10/7/6
f 15/9/3 16/10/3 12/4/3 11/3/3
f 16/10/1 13/11/1 9/12/1 12/4/1
f 13/13/7 16/10/7 15/9/7 14/14/7
f 17/1/2 18/2/2 19/3/2 20/4/2
f 21/5/5 22/6/5 18/7/5 17/8/5
f 22/6/6 23/9/6 19/3/6 18/7/6
f 23/9/3 24/10/3 20/4/3 19/3/3
f 24/10/1 21/11/1 17/12/1 20/4/1
f 21/13/7 24/10/7 23/9/7 22/14/7
f 25/1/2 26/2/2 27/3/2 28/4/2
f 29/5/5 30/6/5 26/7/5 25/8/5
f 30/6/6 31/9/6 27/3/6 26/7/6
f 31/9/3 32/10/3 28/4/3 27/3/3
f 32/10/1 29/11/1 25/12/1 28/4/1
f 29/13/7 32/10/7 31/9/7 30/14/7
f 33/1/2 34/2/2 35/3/2 36/4/2
f 37/5/5 38/6/5 34/7/5 33/8/5
f 38/6/6 39/9/6 35/3/6 34/7/6
f 39/9/3 40/10/3 36/4/3 35/3/3
f 40/10/1 37/11/1 33/12/1 36/4/1
f 37/13/7 40/10/7 39/9/7 38/14/7
f 41/1/2 42/2/2 43/3/2 44/4/2
f 45/5/8 46/6/8 42/7/8 41/8/8
f 46/6/9 47/9/9 43/3/9 42/7/9
f 47/9/10 48/10/10 44/4/10 43/3/10
f 48/10/11 45/11/11 41/12/11 44/4/11
f 45/13/7 48/10/7 47/9/7 46/14/7
f 49/1/2 50/2/2 51/3/2 52/4/2
f 53/5/8 54/6/8 50/7/8 49/8/8
f 54/6/12 55/9/12 51/3/12 50/7/12
f 55/9/10 56/10/10 52/4/10 51/3/10
f 56/10/13 53/11/13 49/12/13 52/4/13
f 53/13/7 56/10/7 55/9/7 54/14/7
